<?xml version="1.0" standalone="no"?><!DOCTYPE svg PUBLIC "-//W3C//DTD SVG 1.1//EN" "http://www.w3.org/Graphics/SVG/1.1/DTD/svg11.dtd"><svg t="1750394023633" class="icon" viewBox="0 0 1024 1024" version="1.1" xmlns="http://www.w3.org/2000/svg" p-id="31170" width="60" height="60" xmlns:xlink="http://www.w3.org/1999/xlink"><path d="M209.194346 565.569867l-12.792804 0.255856c3.070273 18.29371 7.675682 36.075707 13.752264 53.218065l-59.294646 0.127928-72.663127 1.471172c-14.711725 0.511712-23.730652 8.954963-23.730652 24.690112 0.127928 98.056843 0.383784 195.921794-0.127928 293.850709-0.127928 18.549566 10.873883 27.376601 26.736961 27.376601 88.909988 0 177.88394-0.127928 266.857892 0.127928 11.001811 0.127928 21.939659 1.918921 33.133363 0.127928 14.072084-2.238741 24.370292-9.594603 24.306327-25.7775l-0.255856-74.45412v-52.642388c16.950465 5.948654 34.476607 10.554063 52.514461 13.624336v16.246861c0 33.773003 0.127928 67.737897 0 101.5109-0.255856 35.244175-20.724343 62.236992-53.857705 71.064027-10.554063 2.814417-21.172091 4.157661-32.109938 4.157661H104.165425c-2.814417 0-5.56487-0.127928-8.443251 0.127928-2.046849 0.255856-4.477481 0-4.797301 3.198201l0.191892-0.191892V1024h-2.622525l-0.255856-0.191892-7.355862-0.95946H65.914941c-29.999125-1.918921-55.968518-25.713536-63.068524-56.16041-1.151352-4.733337-1.343244-9.594603-1.790993-14.327941l-0.895496-6.908114 1.663065 6.076582-1.599101-6.396402V632.668124c4.669373-1.918921 3.837841-6.908114 4.797302-10.681991 4.92523-19.828846 15.735149-34.988319 33.389218-44.582922 13.112624-7.227934 27.504529-10.554063 42.47211-10.873884 42.727966-0.63964 85.583859 0.191892 128.439752-0.895496z m248.564183 261.996627l2.046848 0.31982-0.063964 119.037042c0 18.997314-6.268474 36.331563-18.805421 50.211755a76.181148 76.181148 0 0 1-42.216254 22.835156c-12.153164 2.558561-24.1784 2.814417-36.395527 2.814417-88.014492-0.127928-176.220876-0.127928-264.235368 0-1.790993 0-3.837841-0.831532-5.56487-0.127928l-1.407208 1.023424 0.063964-0.063964 0.447748-1.407209c0.895496-1.27928 2.686489-1.215316 4.221625-1.407208 2.750453-0.383784 5.628834-0.127928 8.443251-0.127928h267.497533c10.937847 0 21.555875-1.343244 32.109938-4.157661 33.133362-8.827035 53.729777-35.947779 53.857705-71.000063 0.127928-33.900931 0-67.801861 0-101.574864v-16.374789z m503.204947-94.730714l4.477481 0.383784c18.29371 3.454057 24.114436 12.40902 24.306328 31.66219 0 74.134299 0.063964 148.268599-0.191892 222.402898-0.127928 18.93335-8.571179 24.945968-23.346867 28.591917-11.833344 2.942345-26.225248-6.140546-30.510838-18.741458l-0.511712-3.198201V874.324193c0-39.018052-0.31982-77.844213 0-116.862265 0-13.816228 10.490099-22.323443 21.236055-24.306328l4.541445-0.383784z m-115.902805 80.402773l0.31982 2.878381v173.854207c-0.063964 19.445062-17.334249 28.272097-31.790118 25.45768-15.351365-2.942345-22.707227-11.193704-22.707227-29.615341 0-54.881129-0.255856-109.954151 0.127928-164.83528 0.127928-19.125242 9.210819-24.690112 25.329752-27.952277 11.833344-2.238741 25.329752 7.675682 28.719845 20.21263z m-180.250609-20.148666c0.127928 65.435193 0.191892 130.934349 0 196.369542-0.127928 17.014429-10.681991 25.969392-27.440564 26.225248-14.200012 0.255856-24.49822-7.931539-26.609033-21.300018l-0.383784-5.24505v-172.510963c15.095509-4.92523 29.679305-10.873883 43.687426-17.909925l10.745955-5.628834z m-426.512087-67.482041h35.180212c9.530639 10.618027 19.700918 20.596415 30.510837 29.871197v94.02711a23.154975 23.154975 0 0 1-16.438753 23.027047 35.755887 35.755887 0 0 1-11.833344 1.727029 11212.892748 11212.892748 0 0 1-94.794678 0 23.666687 23.666687 0 0 1-18.037853-7.867575 28.272097 28.272097 0 0 1-6.012618-14.711725c0-0.511712 0.063964-1.27928-0.191892-1.727028l-0.831533-0.511712v-100.87126c0.767568-0.95946 0.511712-2.238741 0.767569-3.454057a23.346867 23.346867 0 0 1 10.042351-14.327941 32.365794 32.365794 0 0 1 17.781997-4.669373c17.270285-0.255856 34.540571-0.127928 51.810857-0.127928 0.447748 0 0.95946 0.255856 1.471172 0.127928l0.63964-0.511712zM511.744162 256.431757a255.856081 255.856081 0 1 1 0 511.712162 255.856081 255.856081 0 0 1 0-511.712162z m314.766944 312.592167c10.745955 2.302705 19.189206 10.234243 18.933349 26.992817-0.255856 20.596415 0 41.000937 0 61.405459 0 21.300019-0.127928 42.408145 0 63.516272 0.127928 17.781998-17.718034 27.248673-31.086513 24.690112-16.246861-3.198201-22.195515-11.897308-23.282904-26.09732l-0.191892-5.56487v-45.478418c15.351365-27.248673 26.73696-56.991942 33.517147-88.46224l2.110813-11.001812zM384.008013 388.901243c-1.918921 23.538759 13.112624 61.72528 20.788307 70.360422 7.227934 8.123431 110.913611 39.529765 123.130739 43.239678l1.151352 0.31982-3.901805-0.767568c-17.462178-3.454057-88.526204-17.781998-107.267662-23.154975-21.619839-6.20451-14.711725 6.716222-14.711724 6.716222 4.349553 23.666687 25.13786 50.979324 41.576613 53.345993 5.820726 0.95946 18.421638 1.471172 32.237866 1.663064l16.694609 0.191892h15.735149l20.980199-0.191892s-14.00812 1.599101-36.459492 4.541445c-16.630645 2.174777-37.738772 4.669373-43.175713 6.780187-12.856768 4.477481 9.274783 23.922544 9.274783 23.922543 32.813542 29.423449 50.339684 19.445062 50.339683 19.445062 9.658567-3.198201 18.229746-5.756762 25.841465-7.675682l7.291898-1.727029-11.513524 47.141483h32.877507L546.796445 704.179899l79.955025-104.517209h-41.896433l8.763071-14.839653c0.255856 0.255856 25.7775-40.169405 38.634268-65.115373l2.686489-5.500905a55.52077 55.52077 0 0 0 4.093697-10.234244c6.84415-27.184709-44.263102-37.994628-103.429821-59.486538a1200.60466 1200.60466 0 0 1-39.657692-15.159473l-20.596415-8.315323c-44.263102-18.165782-84.496471-36.331563-84.49647-36.331563-6.076582-1.663065-6.84415 4.221625-6.844151 4.221625z m580.153664 179.355113a26.225248 26.225248 0 0 1 23.218939 15.991005 31.918046 31.918046 0 0 1 2.174777 10.745955c0 21.108127 0.255856 42.344181-0.127928 63.452308-0.255856 15.031545-8.571179 24.114436-22.835155 26.225249-14.327941 2.046849-26.864889-4.861266-31.02255-18.61353l-0.511712-2.942345V626.783434c0-9.402711 0.511712-18.741458-0.191892-28.080205-1.407208-19.89281 10.681991-31.086514 29.231557-30.446873zM932.499487 0.703604c7.291898 1.918921 14.519833 0.63964 21.747767 1.215317 34.348679 2.558561 64.731588 31.98201 68.185645 66.394653l0.319821 7.48379v0.63964l0.127928 1.087389 0.511712 0.895496v309.905678l-0.255856 0.127928-1.790993 6.972078-1.27928 7.227934-1.727029 7.163971c-8.315323 26.609032-27.312637 40.617153-51.938784 47.845087a130.486601 130.486601 0 0 1-36.011744 4.029733l-102.982072 0.063964a311.504779 311.504779 0 0 0-14.200013-56.288338c42.727966 0 85.391967 0.191892 128.119933-0.191892 16.246861-0.127928 27.376601-9.210819 27.3766-24.178399 0.255856-99.9118 0.127928-199.823599 0.127929-299.735399 0-9.978387-4.92523-17.206321-13.880193-20.148667a50.979324 50.979324 0 0 0-15.479293-2.814417C841.798506 58.271222 743.933555 58.143294 645.940676 58.271222c-6.84415 0-14.263977 0.63964-20.276594 5.756762a25.585608 25.585608 0 0 0-8.699107 17.590106l-0.255856 5.117121v123.386595a317.58136 317.58136 0 0 0-52.322568-13.36848V90.892873c0-9.594603 0.895496-19.125242 3.134237-28.463989 5.24505-22.067587 17.014429-38.18652 36.075707-47.653195L612.167674 11.12974l4.605409-1.471173-4.733337 1.471173c-21.108127 7.611718-34.860391 21.811731-42.024362 42.216253L567.39286 62.428884a123.194703 123.194703 0 0 0-3.134237 28.463989v105.924417a29.295521 29.295521 0 0 0-1.918921-0.383784l0.127928-110.913611c0-20.980199 5.436942-40.745081 19.189206-56.927978 10.234243-11.961272 23.922544-18.677494 39.018052-22.259479 11.76938-2.814417 23.666687-4.157661 35.94778-4.157661 51.171216 0 102.47036 0 153.70554-0.127928 2.238741 0 4.861266 1.599101 6.396402-1.215317-0.31982 2.558561-1.918921 2.942345-3.709913 3.070273l-1.727028 0.127928-4.541446 0.191892h0.127928l4.477482-0.191892c1.599101-0.191892 3.645949 0.127928 4.797301-1.151352l0.831532-1.918921h115.582985c1.151352 2.558561 3.390093 1.343244 5.053158 1.279281 8.699107-0.447748 17.014429 0.63964 25.329752 2.750453 12.153164 3.198201 22.707227 8.251359 31.406334 15.351364l6.20451 5.628834V25.905428a75.477544 75.477544 0 0 0-28.78381-18.29371l-8.827034-2.750452a85.264039 85.264039 0 0 0-25.329752-2.814417c-1.663065 0.127928-4.029733 1.471172-5.117122-1.279281zM370.319713 0.575676l0.127928 0.447748 2.046849 1.279281c1.407208 0.511712 3.006309 0.255856 4.541445 0L379.33864 2.174777c17.398214 0.511712 33.645075 4.797302 47.973015 15.223437 17.462178 12.792804 27.504529 30.446874 31.34237 52.130676 1.215316 6.52433 1.215316 13.04866 1.215316 19.57299l0.063965 107.587482-1.918921 0.255856V87.246924l-0.31982-8.443251-0.31982-2.366669 0.191892 1.918921 0.31982 8.507214-0.063964 110.210007a309.585858 309.585858 0 0 0-52.642389 13.560373V80.338809c0-10.298207-4.285589-16.310825-14.00812-19.509026a60.382035 60.382035 0 0 0-10.618028-2.366669L375.053051 58.143294H90.669017c-5.756762 0-11.44956 0.127928-17.142358 1.279281-10.745955 2.302705-18.805422 11.001811-18.805422 21.811731a117265.238303 117265.238303 0 0 0 0 302.293959c0 5.117122 1.790993 9.466675 5.309014 13.432445 6.076582 7.036042 14.263977 8.187395 22.451371 8.187394l73.366731 0.191892h54.369418c-6.140546 17.398214-10.873883 35.563995-13.944157 54.241489l-118.461365-0.191892c-21.427947-0.127928-40.936973-7.227934-55.84059-24.178399a63.708164 63.708164 0 0 1-9.338747-13.752265l0.127928 0.31982c2.494597 4.861266 5.56487 9.530639 9.338747 13.816229 15.095509 17.014429 34.412643 24.050472 55.84059 24.178399a31540.65838 31540.65838 0 0 0 118.333437 0.255857l-0.383784 1.5991H173.374495l-96.713599-0.383784C47.173483 460.988694 23.059047 448.19589 9.626603 419.603973a80.210881 80.210881 0 0 1-8.315323-33.517147c0-1.087388 0.511712-2.686489-1.151352-2.814417a3.901805 3.901805 0 0 1 2.110813 1.023425l0.767568 1.663064a3.837841 3.837841 0 0 0-0.831532-2.110813l-2.046849-1.27928V71.383847C0.799568 57.887438 4.445517 45.03067 12.632912 33.836967 25.8095 15.735149 43.335642 5.756762 63.99602 3.070273L72.950983 2.302705l12.281092-0.191892 2.942345-0.063964 5.117122-0.063964 37.866699-0.639641c19.381098 0 38.762196 0 58.143295 0.127928h58.207258c2.302705 0 4.797302 0.703604 7.036043-0.63964l-0.255857 0.063964L254.672765 0.575676h115.582984zM276.420531 166.242489c0.255856 1.27928 1.471172 1.023424 2.238741 1.023424 1.663065 0 3.518021 0.255856 5.181086 0.511712 9.722531 1.343244 17.526142 8.571179 20.020738 18.357674l0.703604 3.965769 0.191892 4.029733v74.326192a321.739022 321.739022 0 0 0-44.774814 46.437879l-30.958586 0.063964-47.333375-0.063964a23.666687 23.666687 0 0 1-18.101817-7.931539 28.272097 28.272097 0 0 1-5.948654-14.711725c-0.127928-0.511712 0-1.215316-0.255856-1.727028l-0.831532-0.511712V189.269536c0.831532-0.95946 0.575676-2.302705 0.831532-3.518021a23.346867 23.346867 0 0 1 9.978387-14.263977 32.365794 32.365794 0 0 1 17.781998-4.669373c17.270285-0.255856 34.540571-0.127928 51.810856-0.127928 0.447748 0 0.95946 0.191892 1.471172 0.127928l0.639641-0.575676h37.354987z m562.947343-10.298208c0.255856 1.27928 1.471172 1.023424 2.23874 1.023425 1.663065 0 3.518021 0.255856 5.117122 0.575676 9.786495 1.27928 17.590106 8.507215 20.084702 18.29371l0.767568 3.965769 0.127929 4.029733v96.009995a23.154975 23.154975 0 0 1-16.502718 23.027047 35.755887 35.755887 0 0 1-11.833343 1.727028c-31.534262 0.127928-63.196452 0.127928-94.794678 0h10.234243a321.739022 321.739022 0 0 0-35.244175-35.372103V178.907365c0.767568-0.95946 0.447748-2.302705 0.767568-3.518022a23.346867 23.346867 0 0 1 9.978387-14.263976 32.365794 32.365794 0 0 1 17.781998-4.669373c17.270285-0.255856 34.540571-0.127928 51.810856-0.127929 0.447748 0 0.95946 0.255856 1.471173 0.127929l0.63964-0.511713h37.354988z" fill="#1296db" p-id="31171"></path></svg>