<?xml version="1.0" standalone="no"?><!DOCTYPE svg PUBLIC "-//W3C//DTD SVG 1.1//EN" "http://www.w3.org/Graphics/SVG/1.1/DTD/svg11.dtd"><svg t="1750389912716" class="icon" viewBox="0 0 1024 1024" version="1.1" xmlns="http://www.w3.org/2000/svg" p-id="16903" xmlns:xlink="http://www.w3.org/1999/xlink" width="128" height="128"><path d="M512 1024c282.765241 0 512-229.234759 512-512S794.765241 0 512 0 0 229.234759 0 512s229.234759 512 512 512z m0-70.62069C268.235034 953.37931 70.62069 755.764966 70.62069 512S268.235034 70.62069 512 70.62069s441.37931 197.614345 441.37931 441.37931-197.614345 441.37931-441.37931 441.37931z" fill="#8a8a8a" p-id="16904"></path><path d="M483.751724 253.722483c-11.352276 1.271172-22.210207 5.296552-31.602758 11.758345a75.81131 75.81131 0 0 0-34.339311 2.048 80.101517 80.101517 0 0 0-51.659034 70.69131c-1.765517 17.302069-2.153931 65.747862-1.024 91.630345 3.654621 15.501241-8.73931 15.501241-8.739311 15.501241-22.104276-1.377103-12.182069 66.259862-12.182069 66.259862a35.610483 35.610483 0 0 0 31.567449 37.85269A138.857931 138.857931 0 0 0 432.022069 616.165517s0.211862 26.906483 0.812138 46.856828c-3.319172-1.641931 11.369931 50.952828-90.164966 65.518345-101.517241 14.565517-121.026207 47.06869-140.164413 65.09462-19.138207 18.008276-18.220138 105.277793-18.220138 105.277793l655.43062 0.406069s-4.837517-87.58731-23.975724-105.577931c-19.138207-17.990621-40.094897-50.352552-141.594483-65.09462-98.745379-14.018207-82.520276-65.818483-83.191172-68.908138 0-7.856552 1.235862-41.136552 1.235862-41.136552a171.096276 171.096276 0 0 0 50.070069-70.373517c24.54069-15.218759 33.82731-17.319724 37.870345-34.833655 0 0 7.291586-68.360828-15.924966-68.007725 0 0-10.946207 3.460414-7.291586-12.040827 2.824828-27.012414 3.001379-54.201379 0.582621-81.249104-1.765517-17.266759 0.882759-66.59531-35.981242-73.463172a226.33931 226.33931 0 0 0-40.730482-1.783172c-12.235034-1.712552-26.888828-32.979862-49.681655-32.979862l-47.351173 9.851586z" fill="#8a8a8a" p-id="16905"></path><path d="M288.556138 839.732966h446.905379v119.172413H288.556138z" fill="#8a8a8a" p-id="16906"></path></svg>