<?xml version="1.0" standalone="no"?><!DOCTYPE svg PUBLIC "-//W3C//DTD SVG 1.1//EN" "http://www.w3.org/Graphics/SVG/1.1/DTD/svg11.dtd"><svg t="1750389991252" class="icon" viewBox="0 0 1204 1024" version="1.1" xmlns="http://www.w3.org/2000/svg" p-id="27218" xmlns:xlink="http://www.w3.org/1999/xlink" width="150.5" height="128"><path d="M1156.698353 508.446118l17.769412 30.418823a222.268235 222.268235 0 0 1-16.564706 248.470588c-18.070588 23.371294-40.538353 42.887529-66.198588 57.524706l-5.300706 3.011765a227.568941 227.568941 0 0 1-277.684706-40.357647l-116.495059 66.680471 48.609882 83.546352-99.147294 56.741648-48.670117-83.546353-72.884706 41.682823-52.224-89.630118 284.009411-162.514823a222.991059 222.991059 0 0 1 90.654118-291.056941l5.360941-3.011765a227.809882 227.809882 0 0 1 171.550118-22.407529c57.825882 15.299765 107.158588 52.826353 137.336471 104.448h-0.120471zM668.852706 0c206.546824 0 386.529882 130.168471 445.138823 316.897882l4.818824 15.841883-16.865882-0.602353-37.345883-1.084236-61.44-0.963764-4.879059-3.433412c-50.115765-127.457882-176.308706-214.678588-320.451764-218.051765l-8.914824-0.12047-8.553412 0.12047C511.096471 112.037647 380.446118 205.402353 334.366118 340.690824l-17.227294 50.356705-3.794824 3.433412-53.248 13.733647-6.927059 1.867294c-83.064471 24.335059-140.227765 98.123294-140.227765 181.790118 0 104.929882 88.907294 190.102588 198.716236 190.102588h75.776v108.122353l-13.733647 0.301177-8.432941 0.060235H303.405176C134.866824 886.181647 0 753.844706 0 591.811765c0-136.011294 95.774118-253.771294 230.821647-288.527059l-2.891294 0.783059 2.228706-6.204236C293.707294 124.144941 463.872 4.035765 658.974118 0.120471L668.912941 0z m230.580706 520.914824a129.084235 129.084235 0 0 0-50.778353 172.15247l2.831059 5.12 4.577882 7.710118a131.553882 131.553882 0 0 0 176.368941 49.152 129.144471 129.144471 0 0 0 53.12753-173.718588l-2.770824-5.180236-4.577882-7.710117a131.553882 131.553882 0 0 0-178.778353-47.585883v0.060236z" fill="#1A53FF" p-id="27219"></path></svg>